<svg width="71" height="16" viewBox="0 0 71 16" fill="none" xmlns="http://www.w3.org/2000/svg">
<path d="M0.744019 9.45602C0.744019 8.46402 0.896019 7.59202 1.20002 6.84002C1.50402 6.08802 1.90402 5.46402 2.40002 4.96802C2.89602 4.45602 3.46402 4.07202 4.10402 3.81602C4.74402 3.56002 5.40002 3.43202 6.07202 3.43202C7.73602 3.43202 9.00002 3.92802 9.86402 4.92002C10.728 5.89602 11.16 7.32802 11.16 9.21602C11.16 9.40802 11.152 9.60802 11.136 9.81602C11.136 10.024 11.128 10.192 11.112 10.32H3.79202C3.79202 11.056 4.09602 11.64 4.70402 12.072C5.31202 12.488 6.09602 12.696 7.05602 12.696C7.64802 12.696 8.20802 12.632 8.73602 12.504C9.28002 12.376 9.73602 12.248 10.104 12.12L10.512 14.64C10 14.816 9.45602 14.96 8.88002 15.072C8.30402 15.2 7.65602 15.264 6.93602 15.264C5.97602 15.264 5.11202 15.144 4.34402 14.904C3.59202 14.648 2.94402 14.28 2.40002 13.8C1.87202 13.304 1.46402 12.696 1.17602 11.976C0.888019 11.256 0.744019 10.416 0.744019 9.45602ZM8.30402 8.28002C8.30402 7.97602 8.26402 7.68802 8.18402 7.41602C8.10402 7.12802 7.97602 6.87202 7.80002 6.64802C7.62402 6.42402 7.40002 6.24802 7.12802 6.12002C6.85602 5.97602 6.52002 5.90402 6.12002 5.90402C5.73602 5.90402 5.40002 5.96802 5.11202 6.09602C4.84002 6.22402 4.60802 6.40002 4.41602 6.62402C4.24002 6.84802 4.09602 7.10402 3.98402 7.39202C3.88802 7.68002 3.82402 7.97602 3.79202 8.28002H8.30402Z" fill="white"/>
<path d="M16.656 15C15.936 13.576 15.2 11.912 14.448 10.008C13.712 8.08802 13.008 5.99202 12.336 3.72002H15.432C15.576 4.32802 15.744 4.97602 15.936 5.66402C16.144 6.35202 16.36 7.04802 16.584 7.75202C16.808 8.44002 17.032 9.11202 17.256 9.76802C17.496 10.424 17.72 11.024 17.928 11.568C18.136 11.024 18.368 10.424 18.624 9.76802C18.88 9.11202 19.128 8.44002 19.368 7.75202C19.624 7.04802 19.864 6.35202 20.088 5.66402C20.328 4.97602 20.52 4.32802 20.664 3.72002H23.664C22.992 5.99202 22.248 8.08802 21.432 10.008C20.616 11.912 19.848 13.576 19.128 15H16.656Z" fill="white"/>
<path d="M24.744 9.45602C24.744 8.46402 24.896 7.59202 25.2 6.84002C25.504 6.08802 25.904 5.46402 26.4 4.96802C26.896 4.45602 27.464 4.07202 28.104 3.81602C28.744 3.56002 29.4 3.43202 30.072 3.43202C31.736 3.43202 33 3.92802 33.864 4.92002C34.728 5.89602 35.16 7.32802 35.16 9.21602C35.16 9.40802 35.152 9.60802 35.136 9.81602C35.136 10.024 35.128 10.192 35.112 10.32H27.792C27.792 11.056 28.096 11.64 28.704 12.072C29.312 12.488 30.096 12.696 31.056 12.696C31.648 12.696 32.208 12.632 32.736 12.504C33.28 12.376 33.736 12.248 34.104 12.12L34.512 14.64C34 14.816 33.456 14.96 32.88 15.072C32.304 15.2 31.656 15.264 30.936 15.264C29.976 15.264 29.112 15.144 28.344 14.904C27.592 14.648 26.944 14.28 26.4 13.8C25.872 13.304 25.464 12.696 25.176 11.976C24.888 11.256 24.744 10.416 24.744 9.45602ZM32.304 8.28002C32.304 7.97602 32.264 7.68802 32.184 7.41602C32.104 7.12802 31.976 6.87202 31.8 6.64802C31.624 6.42402 31.4 6.24802 31.128 6.12002C30.856 5.97602 30.52 5.90402 30.12 5.90402C29.736 5.90402 29.4 5.96802 29.112 6.09602C28.84 6.22402 28.608 6.40002 28.416 6.62402C28.24 6.84802 28.096 7.10402 27.984 7.39202C27.888 7.68002 27.824 7.97602 27.792 8.28002H32.304Z" fill="white"/>
<path d="M37.512 4.08002C38.04 3.93602 38.688 3.80002 39.456 3.67202C40.24 3.54402 41.088 3.48002 42 3.48002C42.896 3.48002 43.64 3.60802 44.232 3.86402C44.824 4.10402 45.288 4.45602 45.624 4.92002C45.976 5.36802 46.224 5.91202 46.368 6.55202C46.512 7.17602 46.584 7.87202 46.584 8.64002V15H43.632V9.02402C43.632 7.96802 43.512 7.20802 43.272 6.74402C43.032 6.28002 42.544 6.04802 41.808 6.04802C41.584 6.04802 41.36 6.05602 41.136 6.07202C40.928 6.08802 40.704 6.11202 40.464 6.14402V15H37.512V4.08002Z" fill="white"/>
<path d="M51.432 6.16802H48.864V3.72002H51.432V0.888021L54.384 0.40802V3.72002H59.112V6.16802H54.384V10.728C54.384 11.144 54.424 11.48 54.504 11.736C54.584 11.992 54.696 12.192 54.84 12.336C54.984 12.48 55.16 12.576 55.368 12.624C55.576 12.672 55.808 12.696 56.064 12.696C56.336 12.696 56.584 12.688 56.808 12.672C57.048 12.656 57.272 12.632 57.48 12.6C57.704 12.552 57.928 12.488 58.152 12.408C58.392 12.328 58.648 12.224 58.92 12.096L59.328 14.64C58.784 14.864 58.192 15.024 57.552 15.12C56.928 15.216 56.32 15.264 55.728 15.264C55.04 15.264 54.432 15.208 53.904 15.096C53.376 14.984 52.928 14.768 52.56 14.448C52.192 14.128 51.912 13.68 51.72 13.104C51.528 12.512 51.432 11.744 51.432 10.8V6.16802Z" fill="white"/>
<path d="M65.472 12.768C66.192 12.768 66.744 12.72 67.128 12.624C67.512 12.512 67.704 12.296 67.704 11.976C67.704 11.768 67.64 11.592 67.512 11.448C67.4 11.304 67.232 11.184 67.008 11.088C66.8 10.976 66.552 10.872 66.264 10.776C65.992 10.68 65.704 10.584 65.4 10.488C64.968 10.36 64.528 10.216 64.08 10.056C63.632 9.88002 63.224 9.66402 62.856 9.40802C62.488 9.15202 62.184 8.83202 61.944 8.44802C61.704 8.04802 61.584 7.55202 61.584 6.96002C61.584 6.48002 61.672 6.03202 61.848 5.61602C62.04 5.18402 62.328 4.80802 62.712 4.48802C63.112 4.15202 63.616 3.89602 64.224 3.72002C64.832 3.52802 65.56 3.43202 66.408 3.43202C67.144 3.43202 67.824 3.48802 68.448 3.60002C69.088 3.71202 69.64 3.87202 70.104 4.08002L69.648 6.57602C69.376 6.49602 68.952 6.36802 68.376 6.19202C67.8 6.00002 67.152 5.90402 66.432 5.90402C65.68 5.90402 65.168 6.00002 64.896 6.19202C64.64 6.36802 64.512 6.56002 64.512 6.76802C64.512 6.94402 64.568 7.10402 64.68 7.24802C64.808 7.37602 64.968 7.49602 65.16 7.60802C65.368 7.72002 65.6 7.83202 65.856 7.94402C66.128 8.04002 66.416 8.13602 66.72 8.23202C67.152 8.37602 67.6 8.53602 68.064 8.71202C68.528 8.88802 68.944 9.11202 69.312 9.38402C69.696 9.64002 70.008 9.97602 70.248 10.392C70.488 10.792 70.608 11.288 70.608 11.88C70.608 12.344 70.52 12.784 70.344 13.2C70.168 13.616 69.872 13.976 69.456 14.28C69.056 14.584 68.528 14.824 67.872 15C67.216 15.176 66.408 15.264 65.448 15.264C64.472 15.264 63.64 15.152 62.952 14.928C62.264 14.704 61.712 14.504 61.296 14.328L61.752 11.856C62.312 12.08 62.904 12.288 63.528 12.48C64.168 12.672 64.816 12.768 65.472 12.768Z" fill="white"/>
</svg>
